<svg width="28" height="29" viewBox="0 0 28 29" fill="none" xmlns="http://www.w3.org/2000/svg">
<path d="M9.33325 16.241H18.6666M9.33325 10.4077H13.9999" stroke="black" stroke-width="1.75" stroke-linecap="round" stroke-linejoin="round"/>
<path d="M7.1152 22.6577C5.5984 22.5084 4.46213 22.0529 3.70008 21.2908C2.33325 19.924 2.33325 17.7241 2.33325 13.3243V12.741C2.33325 8.34121 2.33325 6.14133 3.70008 4.77449C5.06693 3.40765 7.26681 3.40765 11.6666 3.40765H16.3333C20.733 3.40765 22.933 3.40765 24.2997 4.77449C25.6666 6.14133 25.6666 8.34121 25.6666 12.741V13.3243C25.6666 17.7241 25.6666 19.924 24.2997 21.2908C22.933 22.6577 20.733 22.6577 16.3333 22.6577C15.6793 22.6722 15.1585 22.7219 14.647 22.8385C13.2488 23.1604 11.9542 23.8758 10.6748 24.4997C8.85176 25.3886 7.94025 25.8331 7.36822 25.4169C6.27389 24.6019 7.34355 22.0765 7.58325 20.9077" stroke="black" stroke-width="1.75" stroke-linecap="round"/>
</svg>
