<svg width="28" height="29" viewBox="0 0 28 29" fill="none" xmlns="http://www.w3.org/2000/svg">
<path d="M4.51845 20.3469L3.1143 11.9707C2.90199 10.7043 2.79585 10.0711 3.13577 9.65602C3.4757 9.24097 4.10046 9.24097 5.34999 9.24097H22.6502C23.8997 9.24097 24.5245 9.24097 24.8644 9.65602C25.2043 10.0711 25.0981 10.7043 24.8859 11.9707L23.4817 20.3469C23.0163 23.1232 22.7836 24.5113 21.8334 25.3345C20.8834 26.1576 19.5137 26.1576 16.7746 26.1576H11.2255C8.48637 26.1576 7.11678 26.1576 6.16667 25.3345C5.21656 24.5113 4.98386 23.1232 4.51845 20.3469Z" stroke="black" stroke-width="1.75"/>
<path d="M20.4166 9.24095C20.4166 5.69711 17.5438 2.82428 13.9999 2.82428C10.4561 2.82428 7.58325 5.69711 7.58325 9.24095" stroke="black" stroke-width="1.75"/>
</svg>
