<svg width="26" height="30" viewBox="0 0 26 30" fill="none" xmlns="http://www.w3.org/2000/svg">
<path d="M9.21094 0.666016C9.76315 0.666016 10.2108 1.11383 10.2109 1.66602V28.1924C10.2109 28.7446 9.7632 29.1924 9.21094 29.1924C8.65879 29.1922 8.21097 28.7446 8.21094 28.1924V1.66602C8.21105 1.11391 8.65884 0.666154 9.21094 0.666016ZM13.001 5.08691C13.553 5.08708 14.0008 5.5349 14.001 6.08691V23.7715C14.0008 24.3235 13.553 24.7713 13.001 24.7715C12.4488 24.7715 12.0012 24.3236 12.001 23.7715V6.08691C12.0012 5.53479 12.4488 5.08691 13.001 5.08691ZM5.42188 6.56055C5.97402 6.56063 6.42176 7.00841 6.42188 7.56055V22.2979C6.42162 22.8499 5.97393 23.2978 5.42188 23.2979C4.86974 23.2979 4.42213 22.8499 4.42188 22.2979V7.56055C4.42199 7.00836 4.86966 6.56055 5.42188 6.56055ZM20.5801 6.56055C21.1321 6.5608 21.58 7.00851 21.5801 7.56055V22.2979C21.5798 22.8498 21.132 23.2976 20.5801 23.2979C20.0279 23.2979 19.5803 22.8499 19.5801 22.2979V7.56055C19.5802 7.00836 20.0279 6.56055 20.5801 6.56055ZM16.79 9.50879C17.3423 9.50879 17.79 9.9565 17.79 10.5088V19.3506C17.7898 19.9027 17.3422 20.3506 16.79 20.3506C16.238 20.3505 15.7903 19.9026 15.79 19.3506V10.5088C15.79 9.95654 16.2378 9.50884 16.79 9.50879ZM1.63184 12.4561C2.18412 12.4561 2.63184 12.9038 2.63184 13.4561V16.4033C2.63175 16.9555 2.18407 17.4033 1.63184 17.4033C1.07979 17.4031 0.631919 16.9554 0.631836 16.4033V13.4561C0.631836 12.9039 1.07974 12.4563 1.63184 12.4561ZM24.3691 12.4561C24.9214 12.4561 25.3691 12.9038 25.3691 13.4561V16.4033C25.3691 16.9555 24.9214 17.4033 24.3691 17.4033C23.8169 17.4033 23.3692 16.9555 23.3691 16.4033V13.4561C23.3691 12.9038 23.8169 12.4561 24.3691 12.4561Z" fill="black"/>
</svg>
